<?xml version="1.0" encoding="UTF-8" standalone="no"?>
<svg xmlns="http://www.w3.org/2000/svg" fill-rule="evenodd" stroke-linejoin="round" stroke-miterlimit="2" clip-rule="evenodd" viewBox="0 0 1097 485">
  <path fill="#fff" fill-rule="nonzero" d="M598.235 121.015c-5.7624 6.9223-13.0796 10.6142-21.9476 11.0798-8.4522.4407-15.4867-1.8085-21.1243-6.7476-5.6293-4.935-8.66-11.5163-9.0925-19.7274-.4864-9.3003 2.2576-17.3576 8.232-24.1884 5.9784-6.8308 13.5492-10.481 22.704-10.9592 7.9492-.4157 14.6927 1.8335 20.2139 6.7352 5.5253 4.9142 8.4896 11.2086 8.8887 18.8834.5073 9.6995-2.1161 18.0062-7.8743 24.9243zm33.4221-26.4666c-.7109-13.5327-6.3485-24.413-16.9252-32.6365-10.5725-8.2235-23.7103-11.9279-39.3965-11.1047-16.4721.8606-29.959 6.652-40.461 17.3618-10.5101 10.718-15.3744 23.5107-14.5928 38.3946.7484 14.281 6.415 25.6352 17 34.0583 10.585 8.4314 23.86 12.219 39.8332 11.3833 16.472-.8648 29.88-6.7477 40.2364-17.657 10.3563-10.9093 15.125-24.1717 14.306-39.7998z"/>
  <path fill="#fff" fill-rule="nonzero" d="M808.3472 63.9699c5.729-4.0494 12.6055-6.282 20.6295-6.706 7.8785-.4117 14.2395 1.0767 19.083 4.4692 4.8352 3.3926 7.604 8.315 8.2984 14.7592l-59.311 3.1098c1.8001-6.3734 5.5627-11.587 11.3-15.6322zm-22.251 64.4705c10.2067 8.0074 23.2238 11.5994 39.0598 10.768 10.9966-.578 20.6254-3.006 28.8739-7.2882s15.0127-10.3397 20.297-18.1808l-17.9854-8.9843c-3.8956 4.461-8.498 7.9408-13.8113 10.4478-5.3174 2.507-11.0257 3.9247-17.133 4.2406-8.7267.4615-15.7363-1.4052-21.0038-5.5835-5.276-4.1825-8.2984-10.3023-9.08-18.3679l83.699-4.3861c.6236-2.9352 1.0601-5.5254 1.2971-7.7621.2411-2.241.3118-4.3072.2079-6.1906-.6444-12.3935-5.8621-22.28-15.6406-29.6721-9.7868-7.3879-22.1678-10.689-37.1473-9.9032-17.4616.9147-31.7052 6.9638-42.7184 18.1392-11.0174 11.1796-16.1146 24.6166-15.2914 40.3112.711 13.5993 6.1656 24.4046 16.3765 32.412z"/>
  <path fill="#fff" fill-rule="nonzero" d="M938.681 110.7751l-14.1647.74 5.7623-44.8678c5.65-4.8934 11.0133-8.6019 16.073-11.1255 5.068-2.5319 9.8699-3.9122 14.414-4.1533 3.904-.2037 6.9472.4448 9.1258 1.954 2.1785 1.5092 3.351 3.8083 3.513 6.9056.0416.8107.0375 1.7046-.0207 2.6858-.054.9853-.1622 2.0205-.316 3.1056l-5.6376 43.2465-14.1646.7442-2.6816 20.0932 53.4531-2.8022 2.6857-20.0932-14.1646.74 6.1573-45.4998c.291-2.5818.503-4.752.6236-6.5148.1206-1.7586.1497-3.2137.0915-4.3654-.3742-7.1301-3.0849-12.6097-8.1196-16.4346-5.0431-3.8208-11.824-5.5087-20.3427-5.0639-6.4608.341-12.8925 1.8418-19.3034 4.5068-6.4108 2.665-12.5889 6.386-18.5258 11.1546l1.5424-11.2294-39.2926 2.062-2.5818 19.9935 14.1688-.7442-7.7995 57.0328-13.9526.7275-2.6816 20.0933 53.453-2.798 2.6858-20.0933z"/>
  <path fill="#fff" fill-rule="nonzero" d="M734.7592 284.4219c-5.8828 7.2964-13.4038 11.192-22.5586 11.67-8.3067.4325-15.2913-1.717-20.9456-6.4482-5.6583-4.7354-8.6891-10.9717-9.0966-18.7171-.5654-10.8387 2.1287-19.8272 8.0905-26.9656 5.9577-7.126 13.9817-10.9592 24.0637-11.483 8.4439-.445 15.1957 1.6297 20.2388 6.2237 5.0472 4.5982 7.7953 11.1754 8.2401 19.7274.528 10.0362-2.1494 18.6963-8.0323 25.9928zM683.2726 74.5715c5.991-7.1634 14.0316-11.0132 24.1136-11.5412 8.3067-.4366 14.9795 1.6422 20.0267 6.2404 5.043 4.6024 7.787 11.1421 8.236 19.6276.5322 10.1693-2.1244 18.9-7.97 26.1965-5.8495 7.2964-13.387 11.1837-22.6126 11.666-8.3815.4407-15.3537-1.6921-20.9455-6.3943-5.5836-4.7063-8.577-10.9633-8.9886-18.7795-.5696-10.8386 2.1453-19.8438 8.1404-27.0155zm70.1123 149.6746c-8.8888-7.9742-20.006-11.612-33.3516-10.9135-6.1073.3201-11.7574 1.4759-16.9543 3.4715-5.1969 1.9915-9.9073 4.8601-14.123 8.5853l8.635-61.3275-29.643 1.5508 4.5484-34.8108c4.3238 5.1054 9.6121 8.897 15.8692 11.3707 6.2446 2.4738 13.1668 3.5173 20.7667 3.1182 15.333-.8066 27.9718-6.8516 37.9165-18.1476 9.9406-11.2876 14.5056-24.679 13.699-40.1698-.7067-13.4703-5.542-24.205-14.5055-32.2124-8.9595-7.999-20.1473-11.6577-33.5636-10.955-5.5378.291-10.8677 1.4343-15.9981 3.4257-5.1304 1.9915-9.9822 4.7937-14.5596 8.4107l1.5009-7.9824-39.7167 2.0787-2.69 20.0018 14.4848-.7608L642.3835 169.45l-13.7406.7192-2.6774 20.0974 43.5873-2.2866-14.281 107.7502-13.9526.7317-2.6816 20.1016 38.4403-2.0206 2.4488-14.414c4.3903 5.1095 9.712 8.8804 15.9649 11.3208 6.2487 2.4405 13.1418 3.4632 20.6628 3.0683 15.4036-.8066 28.059-6.835 37.9705-18.0935 9.9115-11.2544 14.4598-24.625 13.6491-40.1158-.7026-13.3997-5.4962-24.0886-14.3891-32.0627z"/>
  <path fill="#fff" fill-rule="nonzero" d="M821.6553 210.5346l-39.2926 2.058-2.5818 19.9934 14.1605-.7442-7.7953 57.0286-13.9485.7317-2.6857 20.0974 53.4572-2.8021 2.6816-20.0975-14.1605.7442 10.1651-77.0095z"/>
  <path fill="#fff" fill-rule="nonzero" d="M790.4574 195.9667l32.0544-1.6797 3.2636-25.2984-32.0544 1.6838-3.2636 25.2943z"/>
  <path fill="#fff" fill-rule="nonzero" d="M900.702 226.2458l12.2481-.6402-34.7401 25.7266 12.618-97.398-39.2926 2.0622-2.5818 20.0849 14.1688-.74-14.6179 110.2613-13.9484.7317-2.6857 20.0974 53.4572-2.8022 2.6816-20.0974-14.1605.7442 3.5713-27.5351 31.988 25.6726-8.9429.4656-2.4696 20.0891 46.639-2.4446 2.4696-20.0891-9.7993.5155-35.185-27.7347 39.3633-29.1026 11.1837-.5904 2.6816-19.9934-51.9606 2.7231-2.6857 19.9935z"/>
  <path fill="#fff" fill-rule="nonzero" d="M983.4365 239.9365c1.8044-6.3693 5.5711-11.5787 11.3001-15.628 5.7291-4.0453 12.6098-6.282 20.6296-6.7061 7.8827-.4116 14.2395 1.0809 19.083 4.4776 4.8352 3.3884 7.6082 8.3109 8.2984 14.7508l-59.311 3.1057zm83.4787-2.4446c-.6486-12.3894-5.8663-22.2801-15.6489-29.668-9.7826-7.392-22.1637-10.689-37.1432-9.9074-17.4615.9189-31.7052 6.968-42.7226 18.1434-11.0174 11.1796-16.1103 24.6166-15.2871 40.303.715 13.6074 6.1656 24.4087 16.3764 32.416 10.2067 8.0115 23.2239 11.5995 39.0557 10.7721 11.0007-.5779 20.6295-3.0142 28.8739-7.288 8.2485-4.2823 15.0169-10.3398 20.301-18.185l-17.9811-8.9803c-3.8998 4.4527-8.5021 7.9367-13.8154 10.4437-5.3175 2.507-11.03 3.9205-17.1331 4.2407-8.7308.4573-15.732-1.4053-21.0038-5.5836-5.2759-4.1824-8.2984-10.3023-9.08-18.3678l83.6948-4.3862c.632-2.9352 1.0644-5.5253 1.3013-7.762.2412-2.2451.3119-4.3073.212-6.1906z"/>
  <path fill="#fff" fill-rule="nonzero" d="M172.3256 197.4467c-2.0288 0-4.0577.05-6.1032.158C102.7372 200.935 53.791 255.2902 57.121 318.7754c3.3219 63.4851 57.6938 112.4024 121.1707 109.1096 63.4893-3.3301 112.4315-57.6854 109.1055-121.1747-3.222-61.4439-54.243-109.2636-115.0716-109.2636zm-.1496 257.5536c-75.0597 0-138.0086-59.0034-141.979-134.8114-4.0993-78.3316 56.2844-145.3964 134.616-149.504 78.3275-4.1534 145.3965 56.2843 149.5082 134.616 4.0993 78.3275-56.2885 145.3964-134.616 149.4999h-.0041c-2.5195.133-5.0306.1995-7.5251.1995z"/>
  <path fill="#fff" fill-rule="nonzero" d="M526.2129 375.833c-20.6046 22.8871-48.8882 36.3782-79.6454 37.9914-30.7531 1.6339-60.2964-8.8472-83.1835-29.456-37.0933-33.3931-47.408-85.5865-29.5599-129.3401l7.8078-15.5949c3.7584-6.2653 8.1446-12.2688 13.2167-17.8939 42.5438-47.246 115.5913-51.0708 162.833-8.5354 22.8872 20.6088 36.3783 48.8924 37.9872 79.6496 1.6132 30.7531-8.8471 60.2964-29.456 83.1793zm56.38-84.5928c-1.9915-37.9456-18.6381-72.8438-46.8718-98.267-45.163-40.6645-109.4215-46.9632-160.4882-20.6461L438.9717 45.02l-.237-.1206 6.8807-13.5618-30.7448 1.6131-75.2135 3.9413 1.4094 26.9199 59.9222-3.143-82.934 165.6517c-3.3094 5.5919-6.1698 11.3625-8.6393 17.2537l-.819 1.634.0914.0498c-21.777 53.8938-8.9802 118.0525 36.6568 159.1453 26.342 23.7186 59.8307 36.5445 95.0116 36.5445 2.5319 0 5.0763-.0706 7.6207-.2037 37.9456-1.9873 72.8479-18.638 98.271-46.8717 25.4232-28.2378 38.3323-64.6826 36.345-102.6323z"/>
  <path fill="#fff" fill-rule="nonzero" d="M194.5434 102.3686l1.4094 26.92-90.4758 4.7395-16.892-26.105 105.9584-5.5545z"/>
</svg>
