<svg xmlns="http://www.w3.org/2000/svg" fill-rule="evenodd" stroke-linejoin="round" stroke-miterlimit="2" clip-rule="evenodd" viewBox="0 0 243 100" width="243" height="100">
  <g fill="#fff" fill-rule="nonzero">
    <path d="M132.725 22.007c-1.345 1.616-3.054 2.478-5.125 2.587-1.974.103-3.616-.422-4.933-1.576-1.315-1.152-2.022-2.689-2.123-4.606-.114-2.172.527-4.054 1.922-5.649 1.396-1.595 3.164-2.447 5.302-2.56 1.856-.096 3.431.429 4.72 1.574 1.29 1.147 1.983 2.617 2.076 4.41.119 2.264-.494 4.204-1.839 5.82zm7.805-6.18c-.166-3.161-1.482-5.702-3.952-7.622-2.47-1.92-5.537-2.786-9.2-2.593-3.847.2-6.996 1.553-9.449 4.054-2.454 2.503-3.59 5.49-3.408 8.966.175 3.335 1.498 5.986 3.97 7.953 2.472 1.97 5.572 2.854 9.302 2.659 3.847-.202 6.978-1.576 9.396-4.124 2.419-2.547 3.532-5.644 3.341-9.294zM181.791 8.685c1.338-.945 2.944-1.467 4.818-1.566 1.84-.096 3.325.252 4.456 1.044 1.13.792 1.776 1.942 1.938 3.447l-13.85.726c.42-1.488 1.298-2.706 2.638-3.65zm-5.196 15.056c2.384 1.87 5.423 2.709 9.122 2.514 2.568-.135 4.816-.702 6.742-1.702 1.926-1 3.506-2.414 4.74-4.245L193 18.21a9.778 9.778 0 01-3.225 2.44 10.568 10.568 0 01-4.001.99c-2.038.108-3.675-.328-4.905-1.304-1.232-.977-1.938-2.406-2.12-4.29l19.545-1.024c.146-.685.248-1.29.303-1.812a8.968 8.968 0 00.049-1.446c-.15-2.894-1.37-5.203-3.653-6.929-2.285-1.725-5.176-2.496-8.674-2.313-4.078.214-7.404 1.627-9.976 4.236-2.573 2.61-3.763 5.749-3.571 9.414.166 3.176 1.44 5.699 3.824 7.569zM212.227 19.616l-3.308.172 1.346-10.477c1.32-1.143 2.572-2.01 3.753-2.598 1.184-.592 2.305-.914 3.367-.97.911-.048 1.622.104 2.13.456.51.352.783.89.821 1.613.01.189.009.398-.005.627-.013.23-.038.472-.074.725l-1.316 10.1-3.308.173-.626 4.692 12.482-.654.628-4.692-3.308.172 1.438-10.625c.068-.603.117-1.11.145-1.521.028-.41.035-.75.022-1.02-.088-1.665-.72-2.944-1.896-3.838-1.178-.892-2.762-1.286-4.751-1.182-1.509.08-3.01.43-4.508 1.052-1.497.623-2.94 1.492-4.326 2.605l.36-2.622-9.175.481-.603 4.67 3.308-.174-1.821 13.318-3.258.17-.626 4.692 12.482-.653.627-4.692zM164.607 60.166c-1.374 1.704-3.13 2.614-5.268 2.725-1.94.101-3.571-.4-4.891-1.506-1.322-1.105-2.03-2.562-2.125-4.37-.132-2.531.497-4.63 1.89-6.298 1.39-1.664 3.265-2.559 5.62-2.681 1.97-.104 3.548.38 4.725 1.453 1.179 1.074 1.82 2.61 1.925 4.607.123 2.344-.502 4.366-1.876 6.07zm-12.023-49.005c1.399-1.673 3.276-2.572 5.63-2.695 1.94-.102 3.499.384 4.677 1.457 1.178 1.075 1.819 2.602 1.924 4.584.124 2.375-.497 4.413-1.862 6.117-1.366 1.704-3.126 2.612-5.28 2.725-1.957.102-3.586-.396-4.891-1.494-1.304-1.099-2.003-2.56-2.1-4.385-.132-2.531.502-4.634 1.902-6.309zm16.372 34.953c-2.075-1.863-4.671-2.712-7.788-2.549-1.426.075-2.746.345-3.96.81a10.766 10.766 0 00-3.297 2.006l2.016-14.322-6.922.362 1.062-8.129a9.229 9.229 0 003.706 2.656c1.458.577 3.075.82 4.85.728 3.58-.189 6.531-1.6 8.854-4.238 2.321-2.636 3.387-5.763 3.199-9.38-.165-3.146-1.294-5.653-3.388-7.523-2.092-1.868-4.704-2.722-7.837-2.558a11.996 11.996 0 00-3.736.8 13.138 13.138 0 00-3.4 1.964l.35-1.864-9.275.485-.628 4.671 3.383-.178-3.11 23.462-3.209.168-.625 4.694 10.179-.534-3.335 25.162-3.259.17-.626 4.695 8.977-.472.572-3.366a9.304 9.304 0 003.728 2.644c1.46.57 3.069.808 4.825.716 3.597-.188 6.553-1.596 8.867-4.225 2.315-2.628 3.377-5.75 3.188-9.368-.165-3.13-1.284-5.625-3.36-7.487zM184.9 42.912l-9.177.48-.603 4.67 3.307-.175-1.82 13.318-3.257.17-.628 4.694 12.484-.654.626-4.694-3.307.174 2.374-17.983zM177.614 39.51l7.485-.393.762-5.907-7.485.393-.762 5.907zM203.358 46.58l2.86-.149-8.112 6.008 2.946-22.745-9.175.482-.603 4.69 3.309-.173-3.414 25.749-3.257.17-.627 4.694 12.483-.655.626-4.693-3.307.174.834-6.43 7.47 5.995-2.088.109-.577 4.691 10.892-.57.576-4.692-2.288.12-8.217-6.476 9.193-6.796 2.611-.138.626-4.67-12.134.637-.627 4.669zM222.679 49.778c.421-1.488 1.3-2.704 2.639-3.65 1.337-.944 2.944-1.467 4.817-1.566 1.84-.096 3.325.253 4.456 1.046 1.13.791 1.777 1.94 1.938 3.444l-13.85.726zm19.494-.571c-.152-2.893-1.37-5.203-3.655-6.928-2.284-1.727-5.175-2.496-8.673-2.314-4.078.215-7.404 1.627-9.977 4.237-2.573 2.61-3.762 5.748-3.57 9.412.167 3.177 1.44 5.7 3.824 7.57s5.424 2.708 9.12 2.515c2.57-.135 4.818-.704 6.743-1.702 1.927-1 3.507-2.414 4.741-4.247l-4.199-2.097a9.815 9.815 0 01-3.226 2.44 10.59 10.59 0 01-4 .99c-2.04.106-3.675-.329-4.906-1.304-1.232-.977-1.938-2.406-2.12-4.29l19.544-1.024c.148-.685.249-1.29.304-1.813a9.092 9.092 0 00.05-1.445zM33.236 39.855c-.474 0-.948.012-1.425.037-14.826.778-26.256 13.471-25.478 28.296.776 14.826 13.473 26.249 28.296 25.48 14.826-.778 26.255-13.47 25.479-28.297-.753-14.349-12.667-25.516-26.872-25.516zM33.2 100C15.673 100 .973 86.221.046 68.518c-.958-18.292 13.143-33.953 31.436-34.912 18.29-.97 33.953 13.144 34.913 31.436.957 18.291-13.145 33.953-31.436 34.911-.59.031-1.175.047-1.758.047z"/>
    <path d="M115.877 81.513c-4.812 5.344-11.417 8.495-18.6 8.871-7.18.382-14.08-2.066-19.425-6.878-8.662-7.798-11.07-19.987-6.902-30.204l1.823-3.642a26.865 26.865 0 013.086-4.178c9.935-11.033 26.993-11.927 38.025-1.994 5.345 4.813 8.496 11.418 8.871 18.6.377 7.182-2.066 14.08-6.878 19.425zm13.166-19.755c-.465-8.86-4.353-17.01-10.946-22.947-10.546-9.496-25.552-10.967-37.478-4.822L95.504 4.26l-.055-.028 1.606-3.167-7.18.377-17.563.92.329 6.287 13.993-.734-19.367 38.683a32.788 32.788 0 00-2.017 4.03l-.192.38.022.012c-5.086 12.586-2.097 27.568 8.56 37.164 6.151 5.54 13.972 8.534 22.187 8.534.591 0 1.186-.016 1.78-.047 8.861-.464 17.011-4.353 22.948-10.946 5.937-6.594 8.952-15.105 8.488-23.967zM38.424 17.652l.33 6.287-21.129 1.107-3.944-6.096 24.743-1.298z"/>
  </g>
</svg>
